<svg xmlns="http://www.w3.org/2000/svg" width="1280" height="640" viewBox="0 0 1280 640" role="img" aria-labelledby="t d">
  <title id="t">codex-link-p2p</title>
  <desc id="d">Rendezvous relay + WebRTC · payload-blind by design</desc>
  <defs>
    <linearGradient id="bg" x1="0" y1="0" x2="1" y2="1">
      <stop offset="0" stop-color="#0b1220"/><stop offset="0.58" stop-color="#15233f"/><stop offset="1" stop-color="#1b1f4a"/>
    </linearGradient>
    <linearGradient id="ln" x1="0" y1="0" x2="1" y2="0">
      <stop offset="0" stop-color="#818cf8"/><stop offset="1" stop-color="#22d3ee"/>
    </linearGradient>
  </defs>
  <rect width="1280" height="640" fill="url(#bg)"/>
  <g opacity="0.18" stroke="#e5e7eb" stroke-width="1">
    <path d="M0 120h1280M0 240h1280M0 360h1280M0 480h1280"/>
    <path d="M160 0v640M320 0v640M480 0v640M640 0v640M800 0v640M960 0v640M1120 0v640"/>
  </g>
  <g transform="translate(92 86)">
    <rect x="0" y="0" width="1096" height="468" rx="34" fill="#020617" opacity="0.72" stroke="#334155"/>
    <g transform="translate(64 66)">
      <text x="0" y="0" fill="#c7d2fe" font-family="Inter, 'Noto Sans JP', 'DejaVu Sans', ui-sans-serif, system-ui, sans-serif" font-size="30" font-weight="700" letter-spacing="4">CODEX-LINK-P2P</text>
      <text x="0" y="92" fill="#f8fafc" font-family="Inter, 'Noto Sans JP', 'DejaVu Sans', ui-sans-serif, system-ui, sans-serif" font-size="74" font-weight="800">iPhone ⇄ Mac,</text>
      <text x="0" y="174" fill="#f8fafc" font-family="Inter, 'Noto Sans JP', 'DejaVu Sans', ui-sans-serif, system-ui, sans-serif" font-size="74" font-weight="800">Codex bridged</text>
      <rect x="0" y="222" width="560" height="6" rx="3" fill="url(#ln)"/>
      <text x="0" y="288" fill="#cbd5e1" font-family="Inter, 'Noto Sans JP', 'DejaVu Sans', ui-sans-serif, system-ui, sans-serif" font-size="29">Rendezvous relay + WebRTC · payload-blind by design</text>
      <text x="0" y="348" fill="#64748b" font-family="Inter, 'Noto Sans JP', 'DejaVu Sans', ui-sans-serif, system-ui, sans-serif" font-size="24">github.com/kitepon-rgb/codex-link-p2p</text>
    </g>
  </g>
</svg>